<svg width="64" height="64" viewBox="0 0 64 64" fill="none" xmlns="http://www.w3.org/2000/svg">
<path d="M7.98999 18.6612H56.01" stroke="white" stroke-width="3" stroke-linecap="round" stroke-linejoin="round"/>
<path d="M23.9966 29.3322H17.2712" stroke="white" stroke-width="3" stroke-linecap="round" stroke-linejoin="round"/>
<path d="M26.6644 45.3389H15.9933C11.5732 45.3389 7.98999 41.7557 7.98999 37.3356V15.9934C7.98999 11.5733 11.5732 7.99005 15.9933 7.99005H48.0067C52.4268 7.99005 56.01 11.5733 56.01 15.9934V23.9967" stroke="white" stroke-width="3" stroke-linecap="round" stroke-linejoin="round"/>
<path d="M34.6678 33.6007V51.7416C34.6708 54.0984 39.4454 56.01 45.3389 56.01C51.2324 56.01 56.007 54.0984 56.01 51.7416V33.6007" stroke="white" stroke-width="3" stroke-linecap="round" stroke-linejoin="round"/>
<path d="M56.007 33.6007C56.007 35.9575 51.2293 37.8692 45.3359 37.8692C39.4424 37.8692 34.6678 35.9575 34.6678 33.6007C34.6678 31.2409 39.4484 29.3323 45.3389 29.3323C51.2293 29.3323 56.007 31.2439 56.01 33.6007" stroke="white" stroke-width="3" stroke-linecap="round" stroke-linejoin="round"/>
<path d="M34.6693 42.6711C34.6693 45.0279 39.4439 46.9396 45.3374 46.9396C51.2309 46.9396 56.0085 45.0279 56.0085 42.6711" stroke="white" stroke-width="3" stroke-linecap="round" stroke-linejoin="round"/>
</svg>
