<svg width="64" height="64" viewBox="0 0 64 64" fill="none" xmlns="http://www.w3.org/2000/svg">
<path fill-rule="evenodd" clip-rule="evenodd" d="M45.5941 32.3294L31.1968 43.8473C30.1353 44.6965 28.605 44.6117 27.6438 43.6505L20.3495 36.3562C19.3883 35.395 19.3036 33.8648 20.1527 32.8033L31.6706 18.406C36.9374 11.8225 44.9112 7.99005 53.3422 7.99005V7.99005C54.8156 7.99005 56.01 9.18446 56.01 10.6578V10.6578C56.01 19.0888 52.1776 27.0627 45.5941 32.3294Z" stroke="white" stroke-width="3" stroke-linecap="round" stroke-linejoin="round"/>
<path d="M42.6711 34.6678V46.358C42.6711 47.3685 42.1002 48.2922 41.1964 48.7441L34.7512 51.9668C34.0595 52.3126 33.2517 52.3413 32.5372 52.0453C31.8228 51.7494 31.2719 51.1579 31.0273 50.4243L29.3322 45.3389" stroke="white" stroke-width="3" stroke-linecap="round" stroke-linejoin="round"/>
<path d="M18.6611 34.6678L13.5759 32.9727C12.8422 32.7282 12.2508 32.1773 11.9548 31.4628C11.6589 30.7483 11.6875 29.9405 12.0334 29.2488L15.2561 22.8036C15.7079 21.8999 16.6316 21.3289 17.642 21.3289H29.3322" stroke="white" stroke-width="3" stroke-linecap="round" stroke-linejoin="round"/>
<path fill-rule="evenodd" clip-rule="evenodd" d="M15.3266 54.9079L7.98999 56.01L9.09218 48.6734C9.44973 46.2934 11.3181 44.425 13.6981 44.0675V44.0675C15.4179 43.8091 17.1584 44.3822 18.3882 45.612C19.618 46.8418 20.1911 48.5822 19.9327 50.3021V50.3021C19.5751 52.6821 17.7067 54.5504 15.3266 54.9079V54.9079Z" stroke="white" stroke-width="3" stroke-linecap="round" stroke-linejoin="round"/>
</svg>
